<?xml version="1.0" standalone="no"?>
<!DOCTYPE svg PUBLIC "-//W3C//DTD SVG 20010904//EN"
 "http://www.w3.org/TR/2001/REC-SVG-20010904/DTD/svg10.dtd">
<svg version="1.0" xmlns="http://www.w3.org/2000/svg"
 width="700.000000pt" height="700.000000pt" viewBox="0 0 700.000000 700.000000"
 preserveAspectRatio="xMidYMid meet">
<metadata>
Created by potrace 1.11, written by Peter Selinger 2001-2013
</metadata>
<g transform="translate(0.000000,700.000000) scale(0.100000,-0.100000)"
fill="#000000" stroke="none">
<path d="M598 5949 c-198 -29 -371 -186 -435 -394 -17 -57 -18 -131 -18 -1525
0 -1595 -3 -1510 57 -1639 40 -84 150 -197 235 -240 127 -63 68 -61 1411 -61
l1222 0 0 -218 c0 -120 5 -245 11 -278 34 -187 188 -358 373 -417 l71 -22
1485 0 1485 0 65 23 c95 34 145 67 220 142 77 76 123 160 145 265 22 103 22
2905 0 3008 -31 147 -147 300 -277 365 -130 65 -59 62 -1410 62 l-1228 0 0
236 c0 183 -4 250 -16 298 -38 147 -146 277 -287 346 -47 22 -110 44 -147 49
-79 13 -2876 13 -2962 0z m884 -1030 l3 -712 518 712 518 711 405 0 c318 0
404 -3 398 -12 -5 -7 -250 -318 -547 -690 l-538 -678 22 -38 c13 -20 267 -428
564 -907 298 -478 544 -876 549 -882 6 -10 -78 -13 -406 -13 l-413 0 -335 578
c-184 317 -358 617 -386 665 l-52 89 -151 -168 -151 -169 0 -497 0 -498 -350
0 -350 0 0 1610 0 1610 350 0 350 0 2 -711z m3088 -859 l0 -630 435 0 435 0 0
630 0 630 350 0 350 0 0 -1605 0 -1605 -350 0 -350 0 0 685 0 685 -435 0 -435
0 0 -685 0 -685 -350 0 -350 0 0 1605 0 1605 350 0 350 0 0 -630z"/>
</g>
</svg>
